<mxfile host="app.diagrams.net" modified="2022-03-09T09:48:09.199Z" agent="5.0 (Windows NT 10.0; Win64; x64) AppleWebKit/537.36 (KHTML, like Gecko) Chrome/98.0.4758.102 Safari/537.36" etag="d-BJhmThPbG5Und7_f-6" version="15.8.3" type="github">
  <diagram name="Page-1" id="13e1069c-82ec-6db2-03f1-153e76fe0fe0">
    <mxGraphModel dx="1205" dy="559" grid="1" gridSize="10" guides="1" tooltips="1" connect="1" arrows="1" fold="1" page="1" pageScale="1" pageWidth="1100" pageHeight="850" background="none" math="0" shadow="0">
      <root>
        <mxCell id="0" />
        <mxCell id="1" parent="0" />
        <mxCell id="GQ3PCylAn8IV9Moyx-yH-1" value="专业负责人" style="shape=umlLifeline;perimeter=lifelinePerimeter;whiteSpace=wrap;html=1;container=1;collapsible=0;recursiveResize=0;outlineConnect=0;rounded=1;shadow=0;comic=0;labelBackgroundColor=none;strokeWidth=1;fontFamily=Verdana;fontSize=12;align=center;" vertex="1" parent="1">
          <mxGeometry x="240" y="80" width="100" height="950" as="geometry" />
        </mxCell>
        <mxCell id="GQ3PCylAn8IV9Moyx-yH-2" value="编制人" style="shape=umlLifeline;perimeter=lifelinePerimeter;whiteSpace=wrap;html=1;container=1;collapsible=0;recursiveResize=0;outlineConnect=0;rounded=1;shadow=0;comic=0;labelBackgroundColor=none;strokeWidth=1;fontFamily=Verdana;fontSize=12;align=center;" vertex="1" parent="1">
          <mxGeometry x="400" y="80" width="100" height="930" as="geometry" />
        </mxCell>
        <mxCell id="GQ3PCylAn8IV9Moyx-yH-3" value="团队文件库" style="shape=umlLifeline;perimeter=lifelinePerimeter;whiteSpace=wrap;html=1;container=1;collapsible=0;recursiveResize=0;outlineConnect=0;rounded=1;shadow=0;comic=0;labelBackgroundColor=none;strokeWidth=1;fontFamily=Verdana;fontSize=12;align=center;" vertex="1" parent="1">
          <mxGeometry x="1070" y="80" width="100" height="950" as="geometry" />
        </mxCell>
        <mxCell id="GQ3PCylAn8IV9Moyx-yH-53" value="" style="html=1;points=[];perimeter=orthogonalPerimeter;fillColor=#f8cecc;strokeColor=#b85450;" vertex="1" parent="GQ3PCylAn8IV9Moyx-yH-3">
          <mxGeometry x="45" y="320" width="10" height="30" as="geometry" />
        </mxCell>
        <mxCell id="GQ3PCylAn8IV9Moyx-yH-63" value="" style="html=1;points=[];perimeter=orthogonalPerimeter;fillColor=#fff2cc;strokeColor=#d6b656;" vertex="1" parent="GQ3PCylAn8IV9Moyx-yH-3">
          <mxGeometry x="45" y="400" width="10" height="30" as="geometry" />
        </mxCell>
        <mxCell id="GQ3PCylAn8IV9Moyx-yH-93" value="" style="html=1;points=[];perimeter=orthogonalPerimeter;fillColor=#f8cecc;strokeColor=#b85450;" vertex="1" parent="GQ3PCylAn8IV9Moyx-yH-3">
          <mxGeometry x="45" y="775" width="10" height="30" as="geometry" />
        </mxCell>
        <mxCell id="GQ3PCylAn8IV9Moyx-yH-98" value="" style="html=1;points=[];perimeter=orthogonalPerimeter;fillColor=#f8cecc;strokeColor=#b85450;" vertex="1" parent="GQ3PCylAn8IV9Moyx-yH-3">
          <mxGeometry x="45" y="845" width="10" height="90" as="geometry" />
        </mxCell>
        <mxCell id="GQ3PCylAn8IV9Moyx-yH-10" value="项目负责人" style="shape=umlLifeline;perimeter=lifelinePerimeter;whiteSpace=wrap;html=1;container=1;collapsible=0;recursiveResize=0;outlineConnect=0;rounded=1;shadow=0;comic=0;labelBackgroundColor=none;strokeWidth=1;fontFamily=Verdana;fontSize=12;align=center;" vertex="1" parent="1">
          <mxGeometry x="100" y="80" width="100" height="640" as="geometry" />
        </mxCell>
        <mxCell id="GQ3PCylAn8IV9Moyx-yH-31" value="个人文件库" style="shape=umlLifeline;perimeter=lifelinePerimeter;whiteSpace=wrap;html=1;container=1;collapsible=0;recursiveResize=0;outlineConnect=0;" vertex="1" parent="1">
          <mxGeometry x="950" y="80" width="100" height="910" as="geometry" />
        </mxCell>
        <mxCell id="GQ3PCylAn8IV9Moyx-yH-50" value="" style="html=1;points=[];perimeter=orthogonalPerimeter;fillColor=#e1d5e7;strokeColor=#9673a6;" vertex="1" parent="GQ3PCylAn8IV9Moyx-yH-31">
          <mxGeometry x="45" y="250" width="10" height="40" as="geometry" />
        </mxCell>
        <mxCell id="GQ3PCylAn8IV9Moyx-yH-58" value="" style="html=1;points=[];perimeter=orthogonalPerimeter;fillColor=#fff2cc;strokeColor=#d6b656;" vertex="1" parent="GQ3PCylAn8IV9Moyx-yH-31">
          <mxGeometry x="45" y="400" width="10" height="80" as="geometry" />
        </mxCell>
        <mxCell id="GQ3PCylAn8IV9Moyx-yH-84" value="" style="html=1;points=[];perimeter=orthogonalPerimeter;fillColor=#e1d5e7;strokeColor=#9673a6;" vertex="1" parent="GQ3PCylAn8IV9Moyx-yH-31">
          <mxGeometry x="45" y="595" width="10" height="30" as="geometry" />
        </mxCell>
        <mxCell id="GQ3PCylAn8IV9Moyx-yH-32" value="结构树" style="shape=umlLifeline;perimeter=lifelinePerimeter;whiteSpace=wrap;html=1;container=1;collapsible=0;recursiveResize=0;outlineConnect=0;" vertex="1" parent="1">
          <mxGeometry x="810" y="80" width="100" height="950" as="geometry" />
        </mxCell>
        <mxCell id="GQ3PCylAn8IV9Moyx-yH-38" value="" style="html=1;points=[];perimeter=orthogonalPerimeter;fillColor=#dae8fc;strokeColor=#6c8ebf;" vertex="1" parent="GQ3PCylAn8IV9Moyx-yH-32">
          <mxGeometry x="45" y="70" width="10" height="60" as="geometry" />
        </mxCell>
        <mxCell id="GQ3PCylAn8IV9Moyx-yH-46" value="" style="html=1;points=[];perimeter=orthogonalPerimeter;fillColor=#dae8fc;strokeColor=#6c8ebf;" vertex="1" parent="GQ3PCylAn8IV9Moyx-yH-32">
          <mxGeometry x="45" y="160" width="10" height="50" as="geometry" />
        </mxCell>
        <mxCell id="GQ3PCylAn8IV9Moyx-yH-73" value="" style="html=1;points=[];perimeter=orthogonalPerimeter;fillColor=#fff2cc;strokeColor=#d6b656;" vertex="1" parent="GQ3PCylAn8IV9Moyx-yH-32">
          <mxGeometry x="45" y="430" width="10" height="30" as="geometry" />
        </mxCell>
        <mxCell id="GQ3PCylAn8IV9Moyx-yH-80" value="" style="html=1;points=[];perimeter=orthogonalPerimeter;fillColor=#dae8fc;strokeColor=#6c8ebf;" vertex="1" parent="GQ3PCylAn8IV9Moyx-yH-32">
          <mxGeometry x="45" y="528" width="10" height="30" as="geometry" />
        </mxCell>
        <mxCell id="GQ3PCylAn8IV9Moyx-yH-90" value="" style="html=1;points=[];perimeter=orthogonalPerimeter;fillColor=#f8cecc;strokeColor=#b85450;" vertex="1" parent="GQ3PCylAn8IV9Moyx-yH-32">
          <mxGeometry x="45" y="705" width="10" height="30" as="geometry" />
        </mxCell>
        <mxCell id="GQ3PCylAn8IV9Moyx-yH-100" value="" style="html=1;points=[];perimeter=orthogonalPerimeter;fillColor=#f8cecc;strokeColor=#b85450;" vertex="1" parent="GQ3PCylAn8IV9Moyx-yH-32">
          <mxGeometry x="45" y="875" width="10" height="40" as="geometry" />
        </mxCell>
        <mxCell id="GQ3PCylAn8IV9Moyx-yH-39" value="创建项目，新建项目结构树" style="html=1;verticalAlign=bottom;startArrow=oval;endArrow=block;startSize=8;rounded=0;fillColor=#dae8fc;strokeColor=#6c8ebf;" edge="1" target="GQ3PCylAn8IV9Moyx-yH-38" parent="1" source="GQ3PCylAn8IV9Moyx-yH-10">
          <mxGeometry relative="1" as="geometry">
            <mxPoint x="795" y="180" as="sourcePoint" />
            <Array as="points">
              <mxPoint x="580" y="150" />
            </Array>
          </mxGeometry>
        </mxCell>
        <mxCell id="GQ3PCylAn8IV9Moyx-yH-42" value="提交基准文件" style="html=1;verticalAlign=bottom;startArrow=oval;startFill=1;endArrow=block;startSize=8;rounded=0;fillColor=#dae8fc;strokeColor=#6c8ebf;" edge="1" parent="1" source="GQ3PCylAn8IV9Moyx-yH-32" target="GQ3PCylAn8IV9Moyx-yH-3">
          <mxGeometry x="-0.2269" y="10" width="60" relative="1" as="geometry">
            <mxPoint x="630" y="190" as="sourcePoint" />
            <mxPoint x="690" y="190" as="targetPoint" />
            <Array as="points">
              <mxPoint x="1010" y="210" />
            </Array>
            <mxPoint as="offset" />
          </mxGeometry>
        </mxCell>
        <mxCell id="GQ3PCylAn8IV9Moyx-yH-47" value="修改项目结构树" style="html=1;verticalAlign=bottom;endArrow=block;entryX=0;entryY=0;rounded=0;fillColor=#dae8fc;strokeColor=#6c8ebf;" edge="1" target="GQ3PCylAn8IV9Moyx-yH-46" parent="1" source="GQ3PCylAn8IV9Moyx-yH-10">
          <mxGeometry relative="1" as="geometry">
            <mxPoint x="785" y="240" as="sourcePoint" />
          </mxGeometry>
        </mxCell>
        <mxCell id="GQ3PCylAn8IV9Moyx-yH-48" value="return" style="html=1;verticalAlign=bottom;endArrow=open;dashed=1;endSize=8;exitX=0;exitY=0.95;rounded=0;fillColor=#dae8fc;strokeColor=#6c8ebf;" edge="1" source="GQ3PCylAn8IV9Moyx-yH-46" parent="1" target="GQ3PCylAn8IV9Moyx-yH-10">
          <mxGeometry relative="1" as="geometry">
            <mxPoint x="785" y="316" as="targetPoint" />
          </mxGeometry>
        </mxCell>
        <mxCell id="GQ3PCylAn8IV9Moyx-yH-49" value="是否可修改" style="text;html=1;align=center;verticalAlign=middle;resizable=0;points=[];autosize=1;strokeColor=#6c8ebf;fillColor=#dae8fc;" vertex="1" parent="1">
          <mxGeometry x="870" y="260" width="80" height="20" as="geometry" />
        </mxCell>
        <mxCell id="GQ3PCylAn8IV9Moyx-yH-51" value="保存文件到个人文件库" style="html=1;verticalAlign=bottom;endArrow=block;entryX=0;entryY=0;rounded=0;fillColor=#e1d5e7;strokeColor=#9673a6;" edge="1" target="GQ3PCylAn8IV9Moyx-yH-50" parent="1" source="GQ3PCylAn8IV9Moyx-yH-10">
          <mxGeometry relative="1" as="geometry">
            <mxPoint x="925" y="310" as="sourcePoint" />
            <Array as="points">
              <mxPoint x="960" y="330" />
            </Array>
          </mxGeometry>
        </mxCell>
        <mxCell id="GQ3PCylAn8IV9Moyx-yH-52" value="return" style="html=1;verticalAlign=bottom;endArrow=open;dashed=1;endSize=8;exitX=0;exitY=0.95;rounded=0;fillColor=#e1d5e7;strokeColor=#9673a6;" edge="1" source="GQ3PCylAn8IV9Moyx-yH-50" parent="1" target="GQ3PCylAn8IV9Moyx-yH-10">
          <mxGeometry relative="1" as="geometry">
            <mxPoint x="925" y="386" as="targetPoint" />
          </mxGeometry>
        </mxCell>
        <mxCell id="GQ3PCylAn8IV9Moyx-yH-54" value="同步或提审" style="html=1;verticalAlign=bottom;endArrow=block;entryX=0;entryY=0;rounded=0;fillColor=#f8cecc;strokeColor=#b85450;" edge="1" target="GQ3PCylAn8IV9Moyx-yH-53" parent="1" source="GQ3PCylAn8IV9Moyx-yH-10">
          <mxGeometry relative="1" as="geometry">
            <mxPoint x="1045" y="400" as="sourcePoint" />
          </mxGeometry>
        </mxCell>
        <mxCell id="GQ3PCylAn8IV9Moyx-yH-55" value="拉取团队最新的数据，判断当前节点的编制权是否在负责人手里" style="html=1;verticalAlign=bottom;endArrow=open;dashed=1;endSize=8;exitX=0;exitY=0.95;rounded=0;fillColor=#f8cecc;strokeColor=#b85450;" edge="1" source="GQ3PCylAn8IV9Moyx-yH-53" parent="1" target="GQ3PCylAn8IV9Moyx-yH-10">
          <mxGeometry relative="1" as="geometry">
            <mxPoint x="1045" y="476" as="targetPoint" />
          </mxGeometry>
        </mxCell>
        <mxCell id="GQ3PCylAn8IV9Moyx-yH-59" value="打开项目获取文件" style="html=1;verticalAlign=bottom;endArrow=block;entryX=0;entryY=0;rounded=0;fillColor=#fff2cc;strokeColor=#d6b656;" edge="1" target="GQ3PCylAn8IV9Moyx-yH-58" parent="1" source="GQ3PCylAn8IV9Moyx-yH-1">
          <mxGeometry relative="1" as="geometry">
            <mxPoint x="1045" y="480" as="sourcePoint" />
          </mxGeometry>
        </mxCell>
        <mxCell id="GQ3PCylAn8IV9Moyx-yH-65" value="return" style="html=1;verticalAlign=bottom;endArrow=open;dashed=1;endSize=8;exitX=0;exitY=0.95;rounded=0;fillColor=#fff2cc;strokeColor=#d6b656;" edge="1" source="GQ3PCylAn8IV9Moyx-yH-63" parent="1" target="GQ3PCylAn8IV9Moyx-yH-31">
          <mxGeometry relative="1" as="geometry">
            <mxPoint x="1045" y="556" as="targetPoint" />
          </mxGeometry>
        </mxCell>
        <mxCell id="GQ3PCylAn8IV9Moyx-yH-64" value="个人文件不存在" style="html=1;verticalAlign=bottom;endArrow=block;entryX=0;entryY=0;rounded=0;fillColor=#fff2cc;strokeColor=#d6b656;" edge="1" target="GQ3PCylAn8IV9Moyx-yH-63" parent="1" source="GQ3PCylAn8IV9Moyx-yH-58">
          <mxGeometry relative="1" as="geometry">
            <mxPoint x="1045" y="480" as="sourcePoint" />
          </mxGeometry>
        </mxCell>
        <mxCell id="GQ3PCylAn8IV9Moyx-yH-66" value="获取团队基准文件" style="text;html=1;align=center;verticalAlign=middle;resizable=0;points=[];autosize=1;strokeColor=none;fillColor=none;" vertex="1" parent="1">
          <mxGeometry x="1130" y="480" width="110" height="20" as="geometry" />
        </mxCell>
        <mxCell id="GQ3PCylAn8IV9Moyx-yH-74" value="获取结构树" style="html=1;verticalAlign=bottom;endArrow=block;entryX=0;entryY=0;rounded=0;fillColor=#fff2cc;strokeColor=#d6b656;" edge="1" target="GQ3PCylAn8IV9Moyx-yH-73" parent="1" source="GQ3PCylAn8IV9Moyx-yH-31">
          <mxGeometry relative="1" as="geometry">
            <mxPoint x="785" y="510" as="sourcePoint" />
          </mxGeometry>
        </mxCell>
        <mxCell id="GQ3PCylAn8IV9Moyx-yH-75" value="return" style="html=1;verticalAlign=bottom;endArrow=open;dashed=1;endSize=8;exitX=0;exitY=0.95;rounded=0;fillColor=#fff2cc;strokeColor=#d6b656;" edge="1" source="GQ3PCylAn8IV9Moyx-yH-73" parent="1" target="GQ3PCylAn8IV9Moyx-yH-31">
          <mxGeometry relative="1" as="geometry">
            <mxPoint x="785" y="586" as="targetPoint" />
          </mxGeometry>
        </mxCell>
        <mxCell id="GQ3PCylAn8IV9Moyx-yH-76" value="return" style="html=1;verticalAlign=bottom;endArrow=open;dashed=1;endSize=8;rounded=0;exitX=0.66;exitY=0.995;exitDx=0;exitDy=0;exitPerimeter=0;fillColor=#fff2cc;strokeColor=#d6b656;" edge="1" parent="1" source="GQ3PCylAn8IV9Moyx-yH-58" target="GQ3PCylAn8IV9Moyx-yH-1">
          <mxGeometry relative="1" as="geometry">
            <mxPoint x="850" y="490" as="sourcePoint" />
            <mxPoint x="770" y="490" as="targetPoint" />
          </mxGeometry>
        </mxCell>
        <mxCell id="GQ3PCylAn8IV9Moyx-yH-81" value="修改项目结构树" style="html=1;verticalAlign=bottom;endArrow=block;entryX=0;entryY=0;rounded=0;fillColor=#dae8fc;strokeColor=#6c8ebf;" edge="1" target="GQ3PCylAn8IV9Moyx-yH-80" parent="1">
          <mxGeometry relative="1" as="geometry">
            <mxPoint x="289.32352941176464" y="608" as="sourcePoint" />
          </mxGeometry>
        </mxCell>
        <mxCell id="GQ3PCylAn8IV9Moyx-yH-82" value="return" style="html=1;verticalAlign=bottom;endArrow=open;dashed=1;endSize=8;exitX=0;exitY=0.95;rounded=0;fillColor=#dae8fc;strokeColor=#6c8ebf;" edge="1" source="GQ3PCylAn8IV9Moyx-yH-80" parent="1">
          <mxGeometry relative="1" as="geometry">
            <mxPoint x="289.32352941176464" y="636.5" as="targetPoint" />
          </mxGeometry>
        </mxCell>
        <mxCell id="GQ3PCylAn8IV9Moyx-yH-86" value="获取文件" style="html=1;verticalAlign=bottom;endArrow=open;dashed=1;endSize=8;exitX=0;exitY=0.95;rounded=0;fillColor=#e1d5e7;strokeColor=#9673a6;" edge="1" source="GQ3PCylAn8IV9Moyx-yH-84" parent="1">
          <mxGeometry relative="1" as="geometry">
            <mxPoint x="289.5" y="703.5" as="targetPoint" />
          </mxGeometry>
        </mxCell>
        <mxCell id="GQ3PCylAn8IV9Moyx-yH-85" value="保存到个人文件库" style="html=1;verticalAlign=bottom;endArrow=block;entryX=0;entryY=0;rounded=0;fillColor=#e1d5e7;strokeColor=#9673a6;" edge="1" target="GQ3PCylAn8IV9Moyx-yH-84" parent="1">
          <mxGeometry relative="1" as="geometry">
            <mxPoint x="289.5" y="675" as="sourcePoint" />
          </mxGeometry>
        </mxCell>
        <mxCell id="GQ3PCylAn8IV9Moyx-yH-88" value="同步或审核" style="html=1;verticalAlign=bottom;endArrow=block;entryX=-0.06;entryY=0.107;rounded=0;entryDx=0;entryDy=0;entryPerimeter=0;strokeColor=#b85450;fillColor=#f8cecc;" edge="1" target="GQ3PCylAn8IV9Moyx-yH-90" parent="1" source="GQ3PCylAn8IV9Moyx-yH-1">
          <mxGeometry relative="1" as="geometry">
            <mxPoint x="289.5" y="793" as="sourcePoint" />
          </mxGeometry>
        </mxCell>
        <mxCell id="GQ3PCylAn8IV9Moyx-yH-91" value="获取结构树信息" style="text;html=1;align=center;verticalAlign=middle;resizable=0;points=[];autosize=1;strokeColor=#b85450;fillColor=#f8cecc;" vertex="1" parent="1">
          <mxGeometry x="860" y="785" width="100" height="20" as="geometry" />
        </mxCell>
        <mxCell id="GQ3PCylAn8IV9Moyx-yH-92" value="return" style="html=1;verticalAlign=bottom;endArrow=open;dashed=1;endSize=8;rounded=0;exitX=-0.06;exitY=0.992;exitDx=0;exitDy=0;exitPerimeter=0;strokeColor=#b85450;fillColor=#f8cecc;" edge="1" parent="1" source="GQ3PCylAn8IV9Moyx-yH-90">
          <mxGeometry relative="1" as="geometry">
            <mxPoint x="780" y="865" as="sourcePoint" />
            <mxPoint x="289.32352941176464" y="814.76" as="targetPoint" />
          </mxGeometry>
        </mxCell>
        <mxCell id="GQ3PCylAn8IV9Moyx-yH-94" value="同步选择节点的团队数据库信息" style="html=1;verticalAlign=bottom;endArrow=block;entryX=0;entryY=0;rounded=0;strokeColor=#b85450;fillColor=#f8cecc;" edge="1" target="GQ3PCylAn8IV9Moyx-yH-93" parent="1">
          <mxGeometry relative="1" as="geometry">
            <mxPoint x="289.32352941176464" y="855" as="sourcePoint" />
          </mxGeometry>
        </mxCell>
        <mxCell id="GQ3PCylAn8IV9Moyx-yH-95" value="return" style="html=1;verticalAlign=bottom;endArrow=open;dashed=1;endSize=8;exitX=0.1;exitY=0.99;rounded=0;exitDx=0;exitDy=0;exitPerimeter=0;strokeColor=#b85450;fillColor=#f8cecc;" edge="1" source="GQ3PCylAn8IV9Moyx-yH-93" parent="1">
          <mxGeometry relative="1" as="geometry">
            <mxPoint x="289.32352941176464" y="884.6999999999998" as="targetPoint" />
          </mxGeometry>
        </mxCell>
        <mxCell id="GQ3PCylAn8IV9Moyx-yH-96" value="" style="html=1;verticalAlign=bottom;endArrow=block;rounded=0;fillColor=#f8cecc;strokeColor=#b85450;" edge="1" parent="1">
          <mxGeometry width="80" relative="1" as="geometry">
            <mxPoint x="289.32352941176464" y="935" as="sourcePoint" />
            <mxPoint x="1110" y="935" as="targetPoint" />
            <Array as="points">
              <mxPoint x="740" y="935" />
            </Array>
          </mxGeometry>
        </mxCell>
        <mxCell id="GQ3PCylAn8IV9Moyx-yH-97" value="审核同步到文件库并修改结构树的信息" style="text;html=1;align=center;verticalAlign=middle;resizable=0;points=[];autosize=1;strokeColor=#b85450;fillColor=#f8cecc;" vertex="1" parent="1">
          <mxGeometry x="540" y="915" width="220" height="20" as="geometry" />
        </mxCell>
        <mxCell id="GQ3PCylAn8IV9Moyx-yH-99" value="更新节点信息" style="html=1;verticalAlign=bottom;endArrow=block;rounded=0;strokeColor=#b85450;fillColor=#f8cecc;" edge="1" parent="1">
          <mxGeometry width="80" relative="1" as="geometry">
            <mxPoint x="1119.5" y="955" as="sourcePoint" />
            <mxPoint x="859.3235294117649" y="955" as="targetPoint" />
            <Array as="points">
              <mxPoint x="1020" y="955" />
            </Array>
          </mxGeometry>
        </mxCell>
        <mxCell id="GQ3PCylAn8IV9Moyx-yH-101" value="return" style="html=1;verticalAlign=bottom;endArrow=open;dashed=1;endSize=8;rounded=0;exitX=1.22;exitY=1.09;exitDx=0;exitDy=0;exitPerimeter=0;strokeColor=#b85450;fillColor=#f8cecc;" edge="1" parent="1" source="GQ3PCylAn8IV9Moyx-yH-100">
          <mxGeometry relative="1" as="geometry">
            <mxPoint x="720" y="865" as="sourcePoint" />
            <mxPoint x="1119.5" y="995" as="targetPoint" />
            <Array as="points">
              <mxPoint x="860" y="995" />
            </Array>
          </mxGeometry>
        </mxCell>
        <mxCell id="GQ3PCylAn8IV9Moyx-yH-102" value="return" style="html=1;verticalAlign=bottom;endArrow=open;dashed=1;endSize=8;rounded=0;exitX=-0.46;exitY=1.013;exitDx=0;exitDy=0;exitPerimeter=0;strokeColor=#b85450;fillColor=#f8cecc;" edge="1" parent="1" source="GQ3PCylAn8IV9Moyx-yH-98">
          <mxGeometry relative="1" as="geometry">
            <mxPoint x="720" y="865" as="sourcePoint" />
            <mxPoint x="289.32352941176464" y="1016.1700000000001" as="targetPoint" />
          </mxGeometry>
        </mxCell>
      </root>
    </mxGraphModel>
  </diagram>
</mxfile>
